<?xml version="1.0" encoding="UTF-8" standalone="no"?> <!-- Generator: Gravit.io --> <svg xmlns="http://www.w3.org/2000/svg" xmlns:xlink="http://www.w3.org/1999/xlink" style="isolation:isolate" viewBox="0 0 48 48" width="48" height="48"><defs><clipPath id="_clipPath_iJhCLJIxvnBD6H216wD2nheMtI7NQsNe"><rect width="48" height="48"></rect></clipPath></defs><g clip-path="url(#_clipPath_iJhCLJIxvnBD6H216wD2nheMtI7NQsNe)"><rect x="19.393" y="19.603" width="9.801" height="9.089" transform="matrix(1,0,0,1,0,0)" fill="rgb(255,255,255)"></rect><path d=" M 35.2 18.5 C 35.2 18.4 35.2 18.3 35.1 18.2 C 35.1 18.2 35.1 18.1 35.1 18.1 C 34.8 17.2 34 16.6 33 16.6 L 33.2 16.6 C 33.2 16.6 29.3 16 24 16 C 18.8 16 14.8 16.6 14.8 16.6 L 15 16.6 C 14 16.6 13.2 17.2 12.9 18.1 C 12.9 18.1 12.9 18.2 12.9 18.2 C 12.9 18.3 12.9 18.4 12.8 18.5 C 12.7 19.5 12.4 21.6 12.4 24 C 12.4 26.4 12.7 28.5 12.8 29.5 C 12.8 29.6 12.8 29.7 12.9 29.8 C 12.9 29.8 12.9 29.9 12.9 29.9 C 13.2 30.8 14 31.4 15 31.4 L 14.8 31.4 C 14.8 31.4 18.7 32 24 32 C 29.2 32 33.2 31.4 33.2 31.4 L 33 31.4 C 34 31.4 34.8 30.8 35.1 29.9 C 35.1 29.9 35.1 29.8 35.1 29.8 C 35.1 29.7 35.1 29.6 35.2 29.5 C 35.3 28.5 35.6 26.4 35.6 24 C 35.6 21.6 35.4 19.5 35.2 18.5 Z M 27.4 24.5 L 22.7 27.9 C 22.6 28 22.5 28 22.4 28 C 22.3 28 22.2 28 22.1 27.9 C 21.9 27.8 21.8 27.6 21.8 27.4 L 21.8 20.6 C 21.8 20.4 21.9 20.2 22.1 20.1 C 22.3 20 22.5 20 22.7 20.1 L 27.4 23.5 C 27.5 23.6 27.6 23.8 27.6 24 C 27.7 24.2 27.6 24.4 27.4 24.5 Z " fill="rgb(202,55,55)"></path></g></svg> 